<?xml version="1.0" encoding="UTF-8"?>
<svg id="Camada_1" data-name="Camada 1" xmlns="http://www.w3.org/2000/svg" version="1.1" viewBox="0 0 200 200">
  <defs>
    <style>
      .cls-1 {
        fill: #1d1d1b;
        stroke-width: 0px;
      }
    </style>
  </defs>
  <rect class="cls-1" x="119.61" y="129.42" width="36.02" height="36.02"/>
  <rect class="cls-1" x="163.98" y="154.69" width="36.02" height="9.66"/>
  <rect class="cls-1" x="163.98" y="129.42" width="36.02" height="9.66"/>
  <rect class="cls-1" x="163.98" y="104.16" width="36.02" height="9.66"/>
  <rect class="cls-1" x="163.98" y="78.89" width="36.02" height="9.66"/>
  <rect class="cls-1" x="163.98" y="53.62" width="36.02" height="9.66"/>
  <rect class="cls-1" x="81.99" y="71.86" width="73.64" height="9.66"/>
  <rect class="cls-1" x=".6" y="28.36" width="155.03" height="18.33"/>
  <rect class="cls-1" x="81.99" y="90.34" width="52.29" height="9.66"/>
  <rect class="cls-1" x="163.98" y="28.36" width="36.02" height="9.66"/>
  <rect class="cls-1" x="39.45" y="129.42" width="36.02" height="36.02"/>
  <rect class="cls-1" x="-.63" y="129.42" width="36.02" height="36.02"/>
  <rect class="cls-1" x="-.63" y="53.62" width="76.1" height="68.86"/>
  <rect class="cls-1" x="79.53" y="129.42" width="36.02" height="36.02"/>
  <rect class="cls-1" x="-218.47" y="-15.59" width="90" height="90"/>
  <rect class="cls-1" x="-218.47" y="84.47" width="90" height="20"/>
  <rect class="cls-1" x="-218.47" y="113.16" width="59.91" height="20"/>
</svg>